<svg width="30" height="39" viewBox="0 0 30 39" fill="none" xmlns="http://www.w3.org/2000/svg">
<path d="M15.8499 0.825125C15.5097 0.516588 15.1231 0.346893 14.6747 0.346893C14.1799 0.346893 13.7778 0.501161 13.4531 0.825125C13.1438 1.13366 12.9738 1.55019 12.9738 2.04385C12.9738 2.53751 13.1284 2.93861 13.4531 3.26257C13.7624 3.57111 14.1799 3.74081 14.6747 3.74081C15.1231 3.74081 15.5251 3.58654 15.8499 3.278C16.1901 2.96946 16.3601 2.55294 16.3601 2.05928C16.3601 1.55019 16.1901 1.13366 15.8499 0.825125Z" fill="white"/>
<path d="M14.6747 38.8061C14.1799 38.8061 13.7778 38.6518 13.4531 38.3278C13.1438 38.0193 12.9738 37.6028 12.9738 37.1091C12.9738 36.6155 13.1284 36.2144 13.4531 35.8904C13.7624 35.5819 14.1799 35.4122 14.6747 35.4122C15.1231 35.4122 15.5251 35.5664 15.8499 35.8904C16.1901 36.2144 16.3601 36.6155 16.3601 37.1091C16.3601 37.6028 16.1901 38.0039 15.8499 38.3278C15.5097 38.6364 15.1231 38.8061 14.6747 38.8061ZM14.6747 35.8904C14.3036 35.8904 14.0252 35.9984 13.7933 36.2298C13.5613 36.4612 13.4531 36.7389 13.4531 37.1091C13.4531 37.4794 13.5613 37.7571 13.7933 37.9885C14.0252 38.2199 14.3036 38.3278 14.6747 38.3278C14.9994 38.3278 15.2777 38.2199 15.5406 37.9885C15.788 37.7571 15.8963 37.4794 15.8963 37.1091C15.8963 36.7543 15.7726 36.4612 15.5406 36.2298C15.2777 36.0138 14.9994 35.8904 14.6747 35.8904Z" fill="white"/>
<path d="M1.93311 12.7501C1.93311 11.9325 2.08774 11.1766 2.397 10.4515C2.70626 9.74187 3.12376 9.10936 3.6495 8.58485C4.17523 8.06034 4.79375 7.64381 5.52051 7.33527C6.23181 7.02674 7.00495 6.87247 7.82449 6.87247C8.64402 6.87247 9.40171 7.02674 10.1285 7.33527C10.8398 7.64381 11.4583 8.06034 11.9686 8.56942C12.2778 8.07576 12.6335 7.62838 13.0355 7.22728C13.0819 7.181 13.1437 7.13472 13.1901 7.08844C12.5252 6.45594 11.7521 5.96228 10.8707 5.57661C9.91198 5.17551 8.89143 4.95953 7.80903 4.95953C6.72662 4.95953 5.70607 5.16008 4.74736 5.57661C3.78866 5.97771 2.96913 6.53307 2.27329 7.22728C1.57746 7.92149 1.0208 8.75455 0.618761 9.69558C0.216725 10.6521 0.000244141 11.6702 0.000244141 12.7501V19.5842H1.91765V12.7501H1.93311Z" fill="white"/>
<path d="M13.7006 26.4183C13.7006 27.2359 13.5459 27.9918 13.2367 28.7169C13.2212 28.7478 13.2057 28.7632 13.1903 28.794C12.881 29.4728 12.479 30.0745 11.9842 30.5681L11.9687 30.5836C11.443 31.0926 10.8399 31.5092 10.1286 31.8177C9.40187 32.1262 8.64419 32.2805 7.82465 32.2805C7.00511 32.2805 6.24743 32.1262 5.52067 31.8177C4.79392 31.5092 4.1754 31.0926 3.64966 30.5681C3.12392 30.0436 2.70642 29.4265 2.39716 28.7015C2.0879 27.9918 1.93327 27.2205 1.93327 26.4029V19.5688H0.0158691V26.4029C0.0158691 27.4828 0.216887 28.5009 0.634386 29.4574C1.03642 30.4139 1.59309 31.2315 2.28892 31.9257C2.98475 32.6199 3.81975 33.1753 4.76299 33.5764C5.72169 33.9775 6.72678 34.1935 7.82465 34.1935C8.90705 34.1935 9.92761 33.9929 10.8863 33.5764C11.7677 33.2061 12.5408 32.697 13.2058 32.0645C13.2521 32.0183 13.314 31.972 13.3604 31.9257C13.7624 31.5246 14.1181 31.0618 14.4273 30.5836C14.5201 30.4447 14.582 30.275 14.6747 30.1208C14.7984 29.9048 14.9221 29.6888 15.0304 29.4574C15.4324 28.5009 15.6489 27.4982 15.6489 26.4029V19.5688H13.7315V26.4183H13.7006Z" fill="white"/>
<path d="M29.3178 12.7501C29.3178 11.6702 29.1168 10.6521 28.6993 9.69558C28.2973 8.73912 27.7406 7.92149 27.0448 7.22728C26.349 6.53307 25.514 5.97771 24.5707 5.57661C23.612 5.17551 22.5915 4.95953 21.5091 4.95953C20.4267 4.95953 19.4061 5.16008 18.4474 5.57661C17.566 5.94685 16.7929 6.45594 16.128 7.08844C16.0816 7.13472 16.0197 7.181 15.9733 7.22728C15.5713 7.62838 15.2156 8.09119 14.9064 8.58485C14.8136 8.72369 14.7518 8.89339 14.659 9.04766C14.5353 9.26363 14.4116 9.47961 14.3033 9.71101C13.9013 10.6675 13.6848 11.6857 13.6848 12.7655V18.5815V19.5842H15.6022V18.5969V12.7501C15.6022 11.9325 15.7568 11.1766 16.0661 10.4515C16.0816 10.4206 16.097 10.4052 16.1125 10.3744C16.4218 9.69559 16.8238 9.09394 17.3186 8.58485L17.3341 8.56942C17.8598 8.06034 18.4629 7.64381 19.1742 7.33527C19.8855 7.02674 20.6586 6.87247 21.4781 6.87247C22.2977 6.87247 23.0554 7.02674 23.7821 7.33527C24.4934 7.64381 25.1274 8.06034 25.6531 8.58485C26.1789 9.10936 26.5964 9.72644 26.9056 10.4515C27.2149 11.1766 27.3695 11.9325 27.3695 12.7501V19.5842H29.2869V12.7501H29.3178Z" fill="white"/>
<path d="M27.4003 19.5842V26.4183C27.4003 27.2359 27.2456 27.9918 26.9364 28.7169C26.6271 29.442 26.2096 30.059 25.6839 30.5836C25.1581 31.1081 24.5396 31.5246 23.8129 31.8331C23.0861 32.1417 22.3284 32.2959 21.5089 32.2959C20.6894 32.2959 19.9317 32.1417 19.2049 31.8331C18.4936 31.5246 17.8751 31.1081 17.3648 30.599C17.0556 31.0926 16.6999 31.54 16.2979 31.9565C16.2515 32.0028 16.1896 32.0491 16.1432 32.0954C16.8082 32.7279 17.5813 33.237 18.4627 33.6072C19.4214 34.0083 20.4265 34.2243 21.5243 34.2243C22.6068 34.2243 23.6273 34.0237 24.586 33.6072C25.5447 33.2061 26.3642 32.6508 27.0601 31.9565C27.7559 31.2623 28.3126 30.4293 28.7146 29.4882C29.1166 28.5318 29.3331 27.529 29.3331 26.4337V19.5996H27.4003V19.5842Z" fill="white"/>
</svg>
